<svg width="26" height="26" viewBox="0 0 26 26" fill="none" xmlns="http://www.w3.org/2000/svg">
<path d="M4.37635 20.0785H21.6236C22.6576 20.0785 23.2672 19.5455 23.2672 18.7618C23.2672 17.6735 22.1678 16.6943 21.2211 15.7258C20.5029 14.9751 20.3069 13.4299 20.2308 12.1787C20.144 8.00011 19.045 5.11643 16.1395 4.07178C15.737 2.65711 14.605 1.52518 13.0056 1.52518C11.3945 1.52518 10.2742 2.65711 9.8605 4.07178C6.96614 5.11643 5.85603 7.99964 5.77989 12.1782C5.69307 13.4299 5.50782 14.9751 4.77889 15.7258C3.84289 16.6943 2.73325 17.6735 2.73325 18.7622C2.73325 19.5455 3.35353 20.0785 4.37635 20.0785ZM9.68639 21.5586C9.81732 23.1474 11.1554 24.4744 13.0056 24.4744C14.8441 24.4744 16.1827 23.1474 16.3243 21.5586H9.68639Z" fill="black"/>
</svg>
